<?xml version="1.0" encoding="UTF-8"?>
<svg width="752pt" height="752pt" version="1.1" viewBox="0 0 752 752" xmlns="http://www.w3.org/2000/svg">
 <path d="m509.55 401.28c-17.922-16.078-39.324-27.789-62.535-34.203 26.688-20.004 43.699-50.336 46.852-83.539 3.1523-33.203-7.8477-66.195-30.289-90.867-22.445-24.672-54.254-38.73-87.609-38.719-33.352 0.007812-65.152 14.082-87.586 38.766-22.43 24.684-33.41 57.684-30.238 90.883 3.168 33.203 20.195 63.527 46.895 83.516-30.168 8.4336-57.133 25.68-77.438 49.527-20.309 23.848-33.035 53.215-36.551 84.34-0.15625 1.4219 0.10156 2.8516 0.74219 4.1289l44.398 88.797c1.2539 2.5039 3.8125 4.0859 6.6172 4.0859h266.39c2.8047 0 5.3672-1.582 6.6211-4.0898l44.398-88.797c0.63672-1.2773 0.89453-2.7109 0.73828-4.1289-4.2617-38.43-22.57-73.934-51.402-99.699zm-237.14-128.87c0.007812-24.562 8.7422-48.324 24.648-67.043 15.902-18.719 37.938-31.176 62.176-35.152 24.242-3.9766 49.102 0.78906 70.152 13.445 21.051 12.656 36.918 32.383 44.773 55.656s7.1875 48.578-1.8906 71.402c-9.0742 22.824-25.965 41.684-47.652 53.207-22.688 11.77-48.867 14.926-73.703 8.8906-4.0898-0.98438-8.1172-2.2188-12.055-3.6992-0.69531-0.26172-1.3438-0.64062-2.0312-0.91797v-0.003906c-3.2188-1.25-6.3672-2.6758-9.4336-4.2617-16.602-8.8359-30.488-22.02-40.176-38.141-9.6875-16.125-14.805-34.574-14.809-53.383zm232.21 310.79h-257.24l-41.363-82.73-0.003906 0.003906c3.8516-30.168 17.25-58.316 38.242-80.32 20.992-22.008 48.473-36.723 78.43-41.988 0.28906 0.14844 0.60156 0.23828 0.88672 0.38281 3.793 1.8789 7.6836 3.5508 11.66 5.0078l0.24219 0.085937c26.188 9.5625 54.914 9.5586 81.102-0.019531l0.16016-0.054687c3.9844-1.4609 7.8906-3.1406 11.691-5.0273 0.28906-0.14453 0.60156-0.23438 0.88672-0.38281v0.003906c29.957 5.2617 57.441 19.973 78.434 41.984 20.992 22.008 34.391 50.16 38.227 80.332z"/>
</svg>
