<?xml version="1.0" encoding="UTF-8"?>
<svg width="752pt" height="752pt" version="1.1" viewBox="0 0 752 752" xmlns="http://www.w3.org/2000/svg">
 <defs>
  <clipPath id="a">
   <path d="m281 139.21h190v473.58h-190z"/>
  </clipPath>
 </defs>
 <g clip-path="url(#a)">
  <path d="m405.23 429.28v-261.21c0-15.91-13.984-28.859-31.227-28.859-16.871 0-30.637 12.43-31.152 27.973h-29.23c-9.8398 0-17.832 7.9922-17.832 17.832v18.648c0 9.8398 7.9922 17.832 17.832 17.832h29.082v22.199h-29.082c-9.8398 0-17.832 7.9922-17.832 17.832v18.648c0 9.8398 7.9922 17.832 17.832 17.832h29.082v132.68c-36.48 13.762-60.824 48.766-60.824 87.984 0 51.871 42.25 94.125 94.121 94.125s94.125-42.254 94.125-94.125c0-40.625-26.562-76.883-64.895-89.391zm-29.23 176.11c-47.801 0-86.723-38.922-86.723-86.723 0-36.926 23.457-69.852 58.383-81.914 0.074219 0 0.074219-0.074218 0.074219-0.074218 0.22266-0.074219 0.44531-0.22266 0.66406-0.44531 0.14844-0.14844 0.37109-0.22266 0.51953-0.37109 0.14844-0.14844 0.29688-0.37109 0.44531-0.59375 0.14844-0.22266 0.29688-0.37109 0.37109-0.59375 0.074219-0.22266 0.074219-0.37109 0.14844-0.59375 0.074219-0.29688 0.14844-0.51953 0.14844-0.8125v-0.14844l-0.003906-138.81c0-2.0703-1.6289-3.6992-3.6992-3.6992h-0.14844-32.633c-5.7734 0-10.434-4.6602-10.434-10.434v-18.648c0-5.7734 4.6602-10.434 10.434-10.434h32.855c2.0703 0 3.6992-1.6289 3.6992-3.6992v-29.598c0-2.0703-1.6289-3.6992-3.6992-3.6992h-0.14844-32.633c-5.7734 0-10.434-4.6602-10.434-10.434v-18.648c0-5.7734 4.6602-10.434 10.434-10.434h32.781c2.0703 0 3.6992-1.6289 3.6992-3.6992v-2.8125c0-11.84 10.73-21.461 23.977-21.461 13.098 0 23.754 9.6211 23.754 21.461v263.88c0 0.074219 0.074219 0.14844 0.074219 0.22266 0 0.29688 0.074219 0.51953 0.14844 0.73828 0.074218 0.22266 0.074218 0.44531 0.22266 0.66406 0.074218 0.22266 0.22266 0.37109 0.37109 0.59375 0.14844 0.22266 0.29687 0.37109 0.44531 0.51953 0.14844 0.14844 0.37109 0.22266 0.51953 0.37109 0.22266 0.14844 0.44531 0.29687 0.73828 0.37109 0.074219 0 0.14844 0.074219 0.14844 0.074219 36.629 10.73 62.23 44.918 62.23 83.172-0.003907 47.797-38.926 86.719-86.73 86.719z"/>
 </g>
 <path d="m376 465.54c-29.305 0-53.129 23.828-53.129 53.129 0 29.305 23.828 53.129 53.129 53.129 29.305 0 53.129-23.828 53.129-53.129 0.003906-29.305-23.824-53.129-53.129-53.129zm0 98.859c-25.234 0-45.73-20.496-45.73-45.73s20.5-45.73 45.73-45.73c25.234 0 45.73 20.496 45.73 45.73s-20.496 45.73-45.73 45.73z"/>
</svg>
