<?xml version="1.0" encoding="UTF-8"?>
<svg width="752pt" height="752pt" version="1.1" viewBox="0 0 752 752" xmlns="http://www.w3.org/2000/svg">
 <path d="m269.45 162.74c-33.777 0-61.418 28.086-61.418 61.859 0 27.164 17.887 50.25 42.477 58.312v186.03c-24.59 8.125-42.477 31.586-42.477 58.754 0 33.781 27.645 61.418 61.418 61.418 33.777 0 61.566-27.637 61.566-61.418 0-27.164-18.035-50.625-42.621-58.754v-2.9609c0-28.078 8.5938-39.023 24.418-48.988 15.824-9.9609 40.738-16.07 67.637-22.641 26.895-6.5742 56.066-13.758 80.211-31.82 21.938-16.41 37.703-43 40.402-79.473 24.816-7.9219 43.066-31.129 43.066-58.457 0-33.777-27.789-61.859-61.566-61.859s-61.418 28.086-61.418 61.859c0 27 17.676 49.969 42.031 58.16-2 25.965-11.336 39.129-25.309 49.578-15.812 11.836-39.918 18.859-66.301 25.309-26.379 6.4492-54.742 12.18-78.879 27.379-1.4492 0.91406-2.8906 1.8086-4.2891 2.8125v-104.93c24.59-8.0586 42.621-31.148 42.621-58.312 0-33.777-27.789-61.859-61.566-61.859zm0 38.035c13.305 0 23.824 10.523 23.824 23.824 0 13.305-10.523 23.387-23.824 23.387-13.305 0-23.68-10.082-23.68-23.387 0-13.305 10.375-23.824 23.68-23.824zm213.11 0c13.305 0 23.824 10.523 23.824 23.824 0 13.305-10.523 23.387-23.824 23.387-13.305 0-23.68-10.082-23.68-23.387 0-13.305 10.375-23.824 23.68-23.824zm-213.11 303.09c13.305 0 23.824 10.523 23.824 23.824 0 13.305-10.523 23.387-23.824 23.387-13.305 0-23.68-10.082-23.68-23.387 0-13.305 10.375-23.824 23.68-23.824z"/>
</svg>
