<?xml version="1.0" encoding="UTF-8"?>
<svg width="752pt" height="752pt" version="1.1" viewBox="0 0 752 752" xmlns="http://www.w3.org/2000/svg">
 <path d="m532.9 520.32c2.7031-1.6562 5.2266-3.5898 7.5312-5.7617 7.2344-7.2812 11.129-17.23 10.766-27.484 0-66.133-14.398-149.71-52.383-198h5.4805c7.832 0 15.066-4.1797 18.984-10.961 3.9141-6.7812 3.9141-15.137 0-21.922-3.918-6.7812-11.152-10.961-18.984-10.961h-0.74219c14.492-16.891 22.195-35.664 22.195-55.16v0.003906c0.027344-1.4258-0.46484-2.8125-1.3867-3.8984-7.9297-10.527-20.344-16.719-33.523-16.719-13.18 0-25.594 6.1914-33.523 16.719-5.7305 7.4141-14.5 11.852-23.871 12.078-9.3789-0.18359-18.164-4.6289-23.871-12.078-8.0625-10.367-20.398-16.516-33.531-16.719h-0.09375c-13.113 0.18359-25.426 6.3398-33.438 16.719-5.5977 7.5938-14.473 12.078-23.91 12.078-9.4336 0-18.309-4.4844-23.906-12.078-7.9336-10.527-20.352-16.719-33.535-16.719-13.18 0-25.598 6.1914-33.531 16.719-0.91406 1.0898-1.4062 2.4727-1.3867 3.8984 0 19.496 7.8945 38.27 22.48 55.16h-1.0273v-0.003907c-7.8047 0.039063-15.004 4.2266-18.895 10.992-3.8945 6.7656-3.8945 15.094 0 21.859 3.8906 6.7656 11.09 10.953 18.895 10.992h5.4766c-37.98 48.293-52.379 131.87-52.379 198-0.35937 10.258 3.5469 20.207 10.781 27.484 2.3398 2.168 4.8867 4.0977 7.6094 5.7617-13.688 1.6328-26.301 8.2266-35.453 18.531-9.1562 10.305-14.215 23.605-14.227 37.387-0.019531 1.6641 0.625 3.2695 1.793 4.4531 1.168 1.1875 2.7617 1.8555 4.4258 1.8633h400.57c1.6602-0.007812 3.2539-0.67969 4.418-1.8672 1.168-1.1836 1.8164-2.7852 1.8008-4.4492-0.027344-13.766-5.082-27.051-14.219-37.348-9.1367-10.301-21.719-16.902-35.387-18.57zm-294.13-327.83c5.6211-6.5234 13.777-10.316 22.387-10.402 9.375 0.20312 18.156 4.6445 23.871 12.078 7.9492 10.527 20.379 16.719 33.57 16.719 13.195 0 25.621-6.1914 33.57-16.719 5.6836-7.4258 14.43-11.867 23.777-12.078h0.09375c9.3711 0.22266 18.141 4.6602 23.871 12.078 7.9297 10.527 20.344 16.719 33.523 16.719 13.18 0 25.594-6.1914 33.523-16.719 5.7188-7.4297 14.496-11.871 23.871-12.078 8.6094 0.078125 16.77 3.8711 22.383 10.402-0.83594 22.102-13.277 39.754-27.027 52.742h-220.39c-13.73-12.988-26.188-30.641-27.027-52.742zm-0.45703 74.672 0.003906 0.003906c0.007813-5.1914 4.1836-9.4102 9.375-9.4727h256.6c2.4922-0.007812 4.8828 0.97656 6.6484 2.7344 1.7617 1.7617 2.7539 4.1484 2.7539 6.6406s-0.99219 4.8828-2.7539 6.6406c-1.7656 1.7578-4.1562 2.7461-6.6484 2.7383h-256.6c-5.1211-0.046875-9.2773-4.1602-9.375-9.2812zm31.117 21.914h212.95c41.047 43.27 56.375 130.21 56.375 198 0.34766 6.9062-2.2109 13.645-7.0586 18.582-9.1094 8.7305-26.742 12.629-48.938 14.305h-213.62c-22.102-1.6719-39.754-5.5742-48.75-14.305h0.003907c-4.9102-4.8984-7.5117-11.656-7.1523-18.582 0-67.789 15.215-154.54 56.184-198zm-86.938 280.85c1.5039-10.43 6.7227-19.965 14.691-26.855 7.9688-6.8945 18.156-10.684 28.691-10.672h300.35c10.52 0.003907 20.688 3.8008 28.633 10.695 7.9492 6.8906 13.145 16.418 14.637 26.832zm193.45-87.301v-0.003906c20.738 0.003906 40.633-8.2344 55.297-22.895 14.668-14.664 22.91-34.555 22.914-55.297 0-20.738-8.2344-40.633-22.898-55.297-14.664-14.668-34.555-22.91-55.293-22.914-20.742 0-40.633 8.2344-55.301 22.898-14.668 14.664-22.91 34.555-22.91 55.293 0.035156 20.73 8.2852 40.598 22.941 55.258 14.656 14.656 34.52 22.914 55.25 22.953zm0-143.96c17.445-0.027344 34.184 6.8828 46.531 19.203 12.352 12.32 19.301 29.039 19.316 46.484s-6.8984 34.18-19.227 46.523c-12.324 12.344-29.051 19.285-46.496 19.293-17.441 0.007813-34.176-6.9141-46.512-19.246-12.34-12.332-19.273-29.062-19.273-46.508 0.03125-17.41 6.957-34.102 19.262-46.426 12.301-12.32 28.984-19.27 46.398-19.324zm14.035 84.145c0-8.1797-4.5664-12.078-14.035-12.078-19.496 0-26.457-12.801-26.457-24.688 0.1875-5.6875 2.2891-11.148 5.9609-15.496 3.6719-4.3477 8.6992-7.332 14.277-8.4688v-4.6406c-0.015624-1.6719 0.64063-3.2773 1.8164-4.4648 1.1758-1.1836 2.7773-1.8516 4.4492-1.8516 1.6719 0 3.2734 0.66797 4.4492 1.8516 1.1758 1.1875 1.832 2.793 1.8164 4.4648v4.6406c5.582 1.1328 10.613 4.1172 14.289 8.4648s5.7812 9.8086 5.9688 15.5c-0.035156 3.4375-2.7852 6.2266-6.2188 6.3125-3.457-0.070312-6.2422-2.8555-6.3164-6.3125-1.0156-6.9375-6.9688-12.078-13.98-12.078-7.0078 0-12.961 5.1406-13.977 12.078 0 8.1602 4.5469 12.25 13.922 12.25 19.609 0 26.57 12.629 26.57 24.516-0.16797 5.6758-2.2695 11.125-5.9492 15.445-3.6836 4.3242-8.7305 7.2617-14.309 8.3281v4.832c-0.078124 3.4062-2.8594 6.125-6.2656 6.125s-6.1875-2.7188-6.2656-6.125v-4.832c-5.5742-1.0703-10.617-4.0117-14.297-8.332-3.6758-4.3203-5.7734-9.7695-5.9414-15.441-0.011719-1.6719 0.64062-3.2773 1.8164-4.4648 1.1797-1.1836 2.7812-1.8516 4.4492-1.8516 1.6719 0 3.2734 0.66797 4.4492 1.8516 1.1758 1.1875 1.832 2.793 1.8203 4.4648 0.91797 7.0195 6.8984 12.27 13.977 12.27 7.082 0 13.062-5.25 13.98-12.27z"/>
</svg>
