<?xml version="1.0" encoding="UTF-8"?>
<svg width="752pt" height="752pt" version="1.1" viewBox="0 0 752 752" xmlns="http://www.w3.org/2000/svg">
 <g>
  <path d="m479.6 464.8h-31.078c-4.5664-22.477-19.293-41.566-39.879-51.684-20.582-10.117-44.695-10.117-65.277 0-20.586 10.117-35.316 29.207-39.879 51.684h-31.078c-11.777 0-23.07 4.6797-31.395 13.004-8.3281 8.3281-13.004 19.621-13.004 31.395v29.598c0 11.777 4.6758 23.07 13.004 31.395 8.3242 8.3281 19.617 13.004 31.395 13.004h207.19c11.773 0 23.066-4.6758 31.395-13.004 8.3242-8.3242 13.004-19.617 13.004-31.395v-29.598c0-11.773-4.6797-23.066-13.004-31.395-8.3281-8.3242-19.621-13.004-31.395-13.004zm14.801 73.996c0 3.9258-1.5625 7.6914-4.3359 10.465-2.7773 2.7773-6.5391 4.3359-10.465 4.3359h-207.19c-3.9258 0-7.6914-1.5586-10.465-4.3359-2.7773-2.7734-4.3359-6.5391-4.3359-10.465v-29.598c0-3.9258 1.5586-7.6875 4.3359-10.465 2.7734-2.7734 6.5391-4.332 10.465-4.332h44.398c3.9258 0 7.6875-1.5625 10.465-4.3359 2.7734-2.7773 4.332-6.5391 4.332-10.465 0-15.863 8.4648-30.52 22.199-38.449 13.738-7.9336 30.664-7.9336 44.398 0 13.738 7.9297 22.199 22.586 22.199 38.449 0 3.9258 1.5586 7.6875 4.3359 10.465 2.7734 2.7734 6.5391 4.3359 10.465 4.3359h44.398c3.9258 0 7.6875 1.5586 10.465 4.332 2.7734 2.7773 4.3359 6.5391 4.3359 10.465z"/>
  <path d="m479.6 213.21h-35.992c-7.6562-17.68-21.934-31.656-39.773-38.934-17.84-7.2773-37.82-7.2773-55.66 0-17.84 7.2773-32.117 21.254-39.773 38.934h-35.992c-11.777 0-23.07 4.6797-31.395 13.004-8.3281 8.3281-13.004 19.621-13.004 31.395v88.797c0 11.777 4.6758 23.066 13.004 31.395 8.3242 8.3281 19.617 13.004 31.395 13.004h44.398c3.9258 0 7.6875-1.5586 10.465-4.3359 2.7734-2.7734 4.332-6.5391 4.332-10.465 0-15.859 8.4648-30.52 22.199-38.449 13.738-7.9297 30.664-7.9297 44.398 0 13.738 7.9297 22.199 22.59 22.199 38.449 0 3.9258 1.5586 7.6914 4.3359 10.465 2.7734 2.7773 6.5391 4.3359 10.465 4.3359h44.398c11.773 0 23.066-4.6758 31.395-13.004 8.3242-8.3281 13.004-19.617 13.004-31.395v-88.797c0-11.773-4.6797-23.066-13.004-31.395-8.3281-8.3242-19.621-13.004-31.395-13.004zm14.801 133.2c0 3.9258-1.5625 7.6914-4.3359 10.465-2.7773 2.7773-6.5391 4.3359-10.465 4.3359h-31.078c-4.5664-22.477-19.293-41.566-39.879-51.684-20.582-10.117-44.695-10.117-65.277 0-20.586 10.117-35.316 29.207-39.879 51.684h-31.078c-3.9258 0-7.6914-1.5586-10.465-4.3359-2.7773-2.7734-4.3359-6.5391-4.3359-10.465v-88.797c0-3.9258 1.5586-7.6875 4.3359-10.465 2.7734-2.7734 6.5391-4.332 10.465-4.332h46.5c3.2812-0.003906 6.4648-1.0938 9.0586-3.1016 2.5938-2.0117 4.4453-4.8242 5.2656-8 3.2344-12.781 12.016-23.449 23.938-29.078 11.926-5.6289 25.742-5.6289 37.664 0 11.926 5.6289 20.707 16.297 23.941 29.078 0.81641 3.1758 2.6719 5.9883 5.2617 8 2.5938 2.0078 5.7812 3.0977 9.0625 3.1016h46.5c3.9258 0 7.6875 1.5586 10.465 4.332 2.7734 2.7773 4.3359 6.5391 4.3359 10.465z"/>
 </g>
</svg>
