<?xml version="1.0" encoding="UTF-8"?>
<svg width="752pt" height="752pt" version="1.1" viewBox="0 0 752 752" xmlns="http://www.w3.org/2000/svg">
 <g fill-rule="evenodd">
  <path d="m177.1 196.11c-5.2305 0-9.4688 4.2383-9.4688 9.4688v271.27c0 5.2305 4.2383 9.4688 9.4688 9.4688h58.961l-10.965 58.348v0.003906c-0.71875 3.8281 0.98047 7.707 4.2852 9.7734 3.3047 2.0664 7.5352 1.8984 10.668-0.42187l91.207-67.703h243.65c5.2305 0 9.4688-4.2383 9.4688-9.4688v-271.27c0-5.2266-4.2383-9.4688-9.4688-9.4688zm9.4688 18.941h378.87v252.33h-237.31v-0.003906c-2.0312 0-4.0117 0.65625-5.6445 1.8672l-74.305 55.156 8.6055-45.805c0.51953-2.7695-0.21875-5.625-2.0195-7.793-1.7969-2.168-4.4688-3.4258-7.2852-3.4258h-60.902v-252.33z"/>
  <path d="m296.24 357.66c-4.0273-0.019531-7.625 2.5117-8.9727 6.3086-1.3438 3.7969-0.14062 8.0273 3 10.547 50.66 41.844 121.2 41.555 171.47 0 1.9805-1.5859 3.2383-3.8984 3.4961-6.4219s-0.50391-5.0469-2.1211-7c-1.6172-1.957-3.9492-3.1797-6.4727-3.4023-2.5273-0.22266-5.0391 0.58203-6.9688 2.2266-43.688 36.113-103.29 36.391-147.34 0v-0.003907c-1.6992-1.4453-3.8594-2.2422-6.0898-2.2539z"/>
  <path d="m283.51 276.62c-18.195 0-33.148 14.957-33.148 33.152-0.046875 2.5391 0.92969 4.9922 2.7109 6.8047s4.2148 2.832 6.7578 2.832 4.9766-1.0195 6.7578-2.832 2.7578-4.2656 2.7109-6.8047c0-7.9453 6.2617-14.207 14.207-14.207 7.9453 0 14.207 6.2617 14.207 14.207h0.003906c-0.042969 2.5391 0.93359 4.9922 2.7148 6.8047s4.2148 2.832 6.7578 2.832c2.5391 0 4.9727-1.0195 6.7539-2.832s2.7617-4.2656 2.7148-6.8047c0-18.195-14.953-33.152-33.148-33.152z"/>
  <path d="m468.49 276.62c-18.195 0-33.148 14.957-33.148 33.152-0.046875 2.5391 0.92969 4.9922 2.7109 6.8047s4.2188 2.832 6.7578 2.832c2.543 0 4.9766-1.0195 6.7578-2.832s2.7578-4.2656 2.7109-6.8047c0-7.9453 6.2617-14.207 14.207-14.207 7.9453 0 14.207 6.2617 14.207 14.207h0.003907c-0.042969 2.5391 0.93359 4.9922 2.7148 6.8047s4.2148 2.832 6.7578 2.832c2.5391 0 4.9766-1.0195 6.7539-2.832 1.7812-1.8125 2.7617-4.2656 2.7148-6.8047 0-18.195-14.953-33.152-33.148-33.152z"/>
 </g>
</svg>
